<svg width="1440" height="820" viewBox="0 0 1440 820" fill="none" xmlns="http://www.w3.org/2000/svg">
  <rect width="1440" height="820" fill="#0D1117"/>
  <g opacity="0.28">
    <path d="M0 90H1440" stroke="#30363D" stroke-width="1"/>
    <path d="M0 190H1440" stroke="#30363D" stroke-width="1"/>
    <path d="M0 290H1440" stroke="#30363D" stroke-width="1"/>
    <path d="M0 390H1440" stroke="#30363D" stroke-width="1"/>
    <path d="M0 490H1440" stroke="#30363D" stroke-width="1"/>
    <path d="M0 590H1440" stroke="#30363D" stroke-width="1"/>
    <path d="M0 690H1440" stroke="#30363D" stroke-width="1"/>
    <path d="M180 0V820" stroke="#30363D" stroke-width="1"/>
    <path d="M360 0V820" stroke="#30363D" stroke-width="1"/>
    <path d="M540 0V820" stroke="#30363D" stroke-width="1"/>
    <path d="M720 0V820" stroke="#30363D" stroke-width="1"/>
    <path d="M900 0V820" stroke="#30363D" stroke-width="1"/>
    <path d="M1080 0V820" stroke="#30363D" stroke-width="1"/>
    <path d="M1260 0V820" stroke="#30363D" stroke-width="1"/>
  </g>
  <path d="M140 710L415 250H540L270 710H140Z" fill="#E6EDF3"/>
  <path d="M480 710V250H610V710H480Z" fill="#E6EDF3"/>
  <path d="M640 710V250H760V550L870 405H1020L900 565L1030 710H875L760 570V710H640Z" fill="#E6EDF3"/>
  <path d="M1060 710V250H1200V710H1060Z" fill="#E6EDF3"/>
  <rect x="1200" y="250" width="100" height="100" fill="#0D1117"/>
  <rect x="720" y="385" width="40" height="40" fill="#0D1117"/>
  <circle cx="1180" cy="165" r="120" fill="#58A6FF" fill-opacity="0.18"/>
  <circle cx="260" cy="145" r="110" fill="#7EE787" fill-opacity="0.12"/>
</svg>
